# File created by Blade
# Date/Time:  Tue Jan 27 17:09:01 2015
#---------------------------------------------------------
:version 1.10
:name HOM
:units
  mass 1.0
  length 1.000000
  angle deg
:documentation
     Acclaim Skeleton File
:root
   axis xyz
   order TX TY TZ RX RY RZ
   position 0.000000 0.000000 0.000000
   orientation 0 0 0
:bonedata
   begin
      id 1
      name Spine_dum
      direction 0.000000 1.000000 0.000000
      length 7.539951
      axis 0.0 0.0 0.0 xyz
   end
   begin
      id 2
      name LeftUpLeg_dum
      direction 1.000000 0.000000 0.000000
      length 3.345476
      axis 0.0 0.0 0.0 xyz
   end
   begin
      id 3
      name RightUpLeg_dum
      direction -1.000000 0.000000 0.000000
      length 3.345476
      axis 0.0 0.0 0.0 xyz
   end
   begin
      id 4
      name Spine
      direction 0.000000 1.000000 0.000000
      length 0.000000
      axis 0.0 0.0 0.0 xyz
      dof rx ry rz
   end
   begin
      id 5
      name Spine_dum1
      direction 0.000000 1.000000 0.000000
      length 15.093809
      axis 0.0 0.0 0.0 xyz
   end
   begin
      id 6
      name Spine_dum2
      direction 0.000000 1.000000 0.000000
      length 9.738928
      axis 0.0 0.0 0.0 xyz
   end
   begin
      id 7
      name Spine_dum3
      direction 0.000000 1.000000 0.000000
      length 9.738928
      axis 0.0 0.0 0.0 xyz
   end
   begin
      id 8
      name Head
      direction 0.000000 1.000000 0.000000
      length 4.527550
      axis 0.0 0.0 0.0 xyz
      dof rx ry rz
   end
   begin
      id 9
      name LeftShoulder
      direction 1.000000 0.000000 0.000000
      length 7.084015
      axis 0.0 0.0 -90.0 xyz
      dof rx ry rz
   end
   begin
      id 10
      name LeftArm
      direction 1.000000 0.000000 0.000000
      length 10.259319
      axis 0.0 0.0 -90.0 xyz
      dof rx ry rz
   end
   begin
      id 11
      name LeftForeArm
      direction 1.000000 0.000000 0.000000
      length 9.896984
      axis 0.0 0.0 -90.0 xyz
      dof ry rz rx
   end
   begin
      id 12
      name LeftHand
      direction 0.000000 0.000000 0.000000
      length 0.000000
      axis 0.0 0.0 -90.0 xyz
      dof rx ry rz
   end
   begin
      id 13
      name LeftHand_dum1
      direction 0.000000 0.000000 0.000000
      length 0.000000
      axis 0.0 0.0 -90.0 xyz
   end
   begin
      id 14
      name LeftHand_dum2
      direction 1.000000 0.000000 0.000000
      length 3.937000
      axis 0.0 0.0 -90.0 xyz
   end
   begin
      id 15
      name LeftHandThumb1
      direction 0.000000 0.000000 1.000000
      length 3.937000
      axis 0.0 0.0 -90.0 xyz
      dof rx rz ry
   end
   begin
      id 16
      name RightShoulder
      direction -1.000000 0.000000 0.000000
      length 7.084015
      axis 0.0 0.0 90.0 xyz
      dof rx ry rz
   end
   begin
      id 17
      name RightArm
      direction -1.000000 0.000000 0.000000
      length 10.259319
      axis 0.0 0.0 90.0 xyz
      dof rx ry rz
   end
   begin
      id 18
      name RightForeArm
      direction -1.000000 0.000000 0.000000
      length 9.896984
      axis 0.0 0.0 90.0 xyz
      dof ry rz rx
   end
   begin
      id 19
      name RightHand
      direction 0.000000 0.000000 0.000000
      length 0.000000
      axis 0.0 0.0 90.0 xyz
      dof rx ry rz
   end
   begin
      id 20
      name RightHand_dum1
      direction 0.000000 0.000000 0.000000
      length 0.000000
      axis 0.0 0.0 90.0 xyz
   end
   begin
      id 21
      name RightHand_dum2
      direction -1.000000 0.000000 0.000000
      length 3.937000
      axis 0.0 0.0 90.0 xyz
   end
   begin
      id 22
      name RightHandThumb1
      direction 0.000000 0.000000 1.000000
      length 3.937000
      axis 0.0 0.0 90.0 xyz
      dof rx rz ry
   end
   begin
      id 23
      name LeftUpLeg
      direction 0.000000 -1.000000 0.000000
      length 19.114733
      axis 0.0 0.0 0.0 xyz
      dof rx ry rz
   end
   begin
      id 24
      name LeftLeg
      direction 0.000000 -1.000000 0.000000
      length 16.045604
      axis 0.0 0.0 0.0 xyz
      dof rx ry rz
   end
   begin
      id 25
      name LeftFoot
      direction 0.000000 -0.258819 0.965926
      length 5.543155
      axis 15.0 0.0 0.0 xyz
      dof rx ry rz
   end
   begin
      id 26
      name LeftToeBase
      direction 0.000000 0.000000 1.000000
      length 2.952750
      axis 0.0 0.0 0.0 xyz
      dof rx ry rz
   end
   begin
      id 27
      name RightUpLeg
      direction 0.000000 -1.000000 0.000000
      length 19.114733
      axis 0.0 0.0 0.0 xyz
      dof rx ry rz
   end
   begin
      id 28
      name RightLeg
      direction 0.000000 -1.000000 0.000000
      length 16.045604
      axis 0.0 0.0 0.0 xyz
      dof rx ry rz
   end
   begin
      id 29
      name RightFoot
      direction 0.000000 -0.258819 0.965926
      length 5.543155
      axis 15.0 0.0 0.0 xyz
      dof rx ry rz
   end
   begin
      id 30
      name RightToeBase
      direction 0.000000 0.000000 1.000000
      length 2.952750
      axis 0.0 0.0 0.0 xyz
      dof rx ry rz
   end
:hierarchy
   begin
      root Spine_dum LeftUpLeg_dum RightUpLeg_dum
      Spine_dum Spine
      LeftUpLeg_dum LeftUpLeg
      RightUpLeg_dum RightUpLeg
      Spine Spine_dum1 Spine_dum2 Spine_dum3
      Spine_dum1 Head
      Spine_dum2 LeftShoulder
      Spine_dum3 RightShoulder
      LeftShoulder LeftArm
      LeftArm LeftForeArm
      LeftForeArm LeftHand
      LeftHand LeftHand_dum1 LeftHand_dum2
      LeftHand_dum1 LeftHandThumb1
      RightShoulder RightArm
      RightArm RightForeArm
      RightForeArm RightHand
      RightHand RightHand_dum1 RightHand_dum2
      RightHand_dum1 RightHandThumb1
      LeftUpLeg LeftLeg
      LeftLeg LeftFoot
      LeftFoot LeftToeBase
      RightUpLeg RightLeg
      RightLeg RightFoot
      RightFoot RightToeBase
   end

# File created by Blade
# Date/Time:  Tue Jan 27 17:08:52 2015
# Frame Rate: 120.000 fps
#------------------------------------------------------
:FULLY-SPECIFIED
:DEGREES
2025
root 0.684727 36.247224 -0.241144 -6.971321 -11.795569 -18.655908
Spine 22.813105 3.691102 16.026765
Head -3.347957 -15.604258 8.645810
LeftShoulder -4.086341 -6.356598 5.113758
LeftArm -18.712573 -35.151770 -43.974421
LeftForeArm 13.389020 0.000000 129.553486
LeftHand -23.731583 -0.000000 34.900136
LeftHandThumb1 -26.253704 0.000000 33.147579
RightShoulder 0.038973 -20.977790 -1.752371
RightArm 7.707216 3.493712 64.353199
RightForeArm 204.001817 -0.000000 39.325092
RightHand 3.080406 -0.000000 5.775023
RightHandThumb1 -24.326973 -0.000000 -32.862282
LeftUpLeg -6.191337 12.853816 13.284709
LeftLeg 37.808228 -0.000000 -0.000000
LeftFoot -30.963164 11.803741 -10.731561
LeftToeBase 11.996280 -0.000000 -0.000000
RightUpLeg -78.928317 -34.253622 8.577979
RightLeg 29.781480 -0.000000 -0.000000
RightFoot 4.493161 -9.717434 8.419569
RightToeBase 6.789906 -0.000000 -0.000000
2026
root 0.662283 36.261066 -0.223890 -6.907064 -11.827156 -18.748432
Spine 22.657221 3.937754 16.091309
Head -3.034905 -15.794189 8.728180
LeftShoulder -4.154668 -6.285661 5.094447
LeftArm -18.693553 -35.110270 -44.010035
LeftForeArm 13.307988 -0.000000 129.729268
LeftHand -23.677479 -0.000000 34.733015
LeftHandThumb1 -26.253704 0.000000 33.147579
RightShoulder -0.003295 -20.979758 -1.769525
RightArm 7.824648 3.336894 64.435181
RightForeArm 203.797552 -0.000000 38.694409
RightHand 3.058454 0.000000 5.814568
RightHandThumb1 -24.326973 -0.000000 -32.862282
LeftUpLeg -6.170520 12.759831 13.387057
LeftLeg 37.752821 -0.000000 -0.000000
LeftFoot -30.943524 11.926839 -10.756710
LeftToeBase 11.951193 -0.000000 -0.000000
RightUpLeg -79.531520 -34.303340 9.160630
RightLeg 31.599214 -0.000000 -0.000000
RightFoot 5.318955 -7.805878 8.084349
RightToeBase 6.579561 -0.000000 -0.000000
2027
root 0.644432 36.271966 -0.207007 -6.822042 -11.850335 -18.786412
Spine 22.459020 4.232201 16.115173
Head -2.779686 -16.032946 8.770266
LeftShoulder -4.180514 -6.236086 5.107041
LeftArm -18.673106 -34.982377 -44.107652
LeftForeArm 13.269326 -0.000000 129.875706
LeftHand -23.608771 0.000000 34.745022
LeftHandThumb1 -26.253704 0.000000 33.147579
RightShoulder -0.089878 -20.972673 -1.768896
RightArm 7.870330 3.140308 64.484519
RightForeArm 203.661159 -0.000000 38.193906
RightHand 3.097857 -0.000000 5.882435
RightHandThumb1 -24.326973 -0.000000 -32.862282
LeftUpLeg -6.178740 12.665461 13.414594
LeftLeg 37.678990 -0.000000 -0.000000
LeftFoot -30.934941 12.055926 -10.804900
LeftToeBase 11.921080 -0.000000 -0.000000
RightUpLeg -80.041564 -34.289288 9.505941
RightLeg 33.569210 -0.000000 -0.000000
RightFoot 5.774069 -5.967947 7.747083
RightToeBase 5.922193 -0.000000 -0.000000
2028
root 0.625265 36.284443 -0.194082 -6.705972 -11.870705 -18.831489
Spine 22.229599 4.470974 16.128911
Head -2.546017 -16.188250 8.776459
LeftShoulder -4.279924 -6.189453 5.110686
LeftArm -18.606331 -34.833934 -44.203487
LeftForeArm 13.273892 -0.000000 129.975636
LeftHand -23.599928 -0.000000 34.691461
LeftHandThumb1 -26.253704 0.000000 33.147579
RightShoulder -0.087736 -20.942563 -1.823699
RightArm 7.853253 2.946021 64.535636
RightForeArm 203.452255 0.000000 37.762149
RightHand 3.036891 -0.000000 6.001187
RightHandThumb1 -24.326973 -0.000000 -32.862282
LeftUpLeg -6.222268 12.593386 13.448887
LeftLeg 37.603099 -0.000000 -0.000000
LeftFoot -30.882814 12.186869 -10.791705
LeftToeBase 11.862890 -0.000000 -0.000000
RightUpLeg -80.527135 -34.244422 9.850566
RightLeg 35.614411 -0.000000 -0.000000
RightFoot 5.903151 -4.319893 7.448931
RightToeBase 5.351899 -0.000000 -0.000000
2029
root 0.608982 36.295852 -0.179748 -6.567869 -11.860798 -18.857608
Spine 21.954616 4.699393 16.140373
Head -2.329775 -16.364054 8.722496
LeftShoulder -4.374512 -6.135644 5.013000
LeftArm -18.470138 -34.629838 -44.125310
LeftForeArm 13.101208 0.000000 130.074314
LeftHand -23.606377 -0.000000 34.503317
LeftHandThumb1 -26.253704 0.000000 33.147579
RightShoulder -0.094558 -21.004891 -1.891977
RightArm 7.863968 2.864731 64.620838
RightForeArm 203.342956 -0.000000 37.415314
RightHand 3.034789 -0.000000 6.017786
RightHandThumb1 -24.326973 -0.000000 -32.862282
LeftUpLeg -6.293484 12.487238 13.443063
LeftLeg 37.509526 -0.000000 -0.000000
LeftFoot -30.856388 12.313884 -10.821457
LeftToeBase 11.842306 -0.000000 -0.000000
RightUpLeg -80.890718 -34.177823 10.011636
RightLeg 37.673605 -0.000000 -0.000000
RightFoot 5.846093 -2.984459 7.171331
RightToeBase 4.526400 -0.000000 -0.000000
2030
root 0.590470 36.308563 -0.166774 -6.424095 -11.849459 -18.919371
Spine 21.696040 4.933451 16.204119
Head -2.204350 -16.554577 8.651196
LeftShoulder -4.476324 -6.129869 5.014869
LeftArm -18.306916 -34.332134 -44.303142
LeftForeArm 13.124644 -0.000000 130.133123
LeftHand -23.516271 -0.000000 34.502298
LeftHandThumb1 -26.253704 0.000000 33.147579
RightShoulder -0.083974 -21.009784 -1.992653
RightArm 7.786256 2.726648 64.697721
RightForeArm 203.480452 0.000000 37.155288
RightHand 3.058661 -0.000000 6.135660
RightHandThumb1 -24.326973 -0.000000 -32.862282
LeftUpLeg -6.363901 12.364293 13.476709
LeftLeg 37.411289 -0.000000 -0.000000
LeftFoot -30.812274 12.470712 -10.787456
LeftToeBase 11.773776 -0.000000 -0.000000
RightUpLeg -81.148816 -34.079148 10.107281
RightLeg 39.791238 -0.000000 -0.000000
RightFoot 5.643170 -2.010492 7.307093
RightToeBase 3.745076 -0.000000 -0.000000
2031
root 0.574680 36.321421 -0.154879 -6.266791 -11.842855 -18.989784
Spine 21.426959 5.140512 16.286843
Head -2.088399 -16.695605 8.569844
LeftShoulder -4.580534 -6.081622 5.008242
LeftArm -18.153549 -34.097772 -44.488459
LeftForeArm 13.039464 -0.000000 130.186840
LeftHand -23.388939 -0.000000 34.354765
LeftHandThumb1 -26.253704 0.000000 33.147579
RightShoulder -0.044222 -21.095510 -2.101819
RightArm 7.784406 2.712806 64.740994
RightForeArm 203.254998 -0.000000 36.885663
RightHand 2.913232 0.000000 6.134708
RightHandThumb1 -24.326973 -0.000000 -32.862282
LeftUpLeg -6.445220 12.244360 13.507736
LeftLeg 37.309334 -0.000000 -0.000000
LeftFoot -30.791470 12.640786 -10.761444
LeftToeBase 11.777226 -0.000000 -0.000000
RightUpLeg -81.340555 -33.955661 10.183769
RightLeg 41.921122 -0.000000 -0.000000
RightFoot 5.365700 -1.466485 7.628513
RightToeBase 3.476703 -0.000000 -0.000000
2032
root 0.554722 36.335523 -0.143168 -6.129598 -11.819623 -19.084251
Spine 21.194383 5.335149 16.395988
Head -2.030621 -16.807541 8.486358
LeftShoulder -4.706135 -6.023039 5.006154
LeftArm -17.894352 -33.823418 -44.719550
LeftForeArm 12.955475 -0.000000 130.212789
LeftHand -23.209775 0.000000 34.097761
LeftHandThumb1 -26.253704 0.000000 33.147579
RightShoulder -0.045569 -21.116893 -2.187238
RightArm 7.736793 2.613629 64.746176
RightForeArm 203.372627 0.000000 36.711312
RightHand 2.997020 -0.000000 6.190725
RightHandThumb1 -24.326973 -0.000000 -32.862282
LeftUpLeg -6.503508 12.139931 13.582067
LeftLeg 37.200768 -0.000000 -0.000000
LeftFoot -30.738239 12.750122 -10.709600
LeftToeBase 11.722726 -0.000000 -0.000000
RightUpLeg -81.420892 -33.830967 10.216576
RightLeg 44.082278 -0.000000 -0.000000
RightFoot 5.001180 -1.241859 8.054579
RightToeBase 3.504366 -0.000000 -0.000000
2033
root 0.536887 36.349982 -0.131495 -5.974703 -11.799453 -19.175097
Spine 20.949985 5.530780 16.513400
Head -2.045140 -16.885050 8.384228
LeftShoulder -4.814402 -5.990876 4.937356
LeftArm -17.659591 -33.522840 -44.811772
LeftForeArm 12.867499 0.000000 130.235820
LeftHand -23.108888 -0.000000 33.866978
LeftHandThumb1 -26.253704 0.000000 33.147579
RightShoulder -0.029302 -21.169696 -2.272540
RightArm 7.722679 2.531922 64.716163
RightForeArm 203.526818 -0.000000 36.523285
RightHand 2.979291 -0.000000 6.249134
RightHandThumb1 -24.326973 -0.000000 -32.862282
LeftUpLeg -6.579434 12.082742 13.651444
LeftLeg 37.091771 -0.000000 -0.000000
LeftFoot -30.656108 12.840431 -10.575735
LeftToeBase 11.664029 -0.000000 -0.000000
RightUpLeg -81.469484 -33.679098 10.254088
RightLeg 46.255701 -0.000000 -0.000000
RightFoot 4.754661 -1.367259 8.149349
RightToeBase 3.307378 -0.000000 -0.000000
